<svg id="epWX5Me9z3P1" xmlns="http://www.w3.org/2000/svg" xmlns:xlink="http://www.w3.org/1999/xlink" viewBox="0 0 667 602" shape-rendering="geometricPrecision" text-rendering="geometricPrecision" width="667" height="602"><path d="M217.699219,47.196674c23.669525,3.285996,40.033447,15.933564,51.194854,36.292607c8.966828,16.356018,18.626709,32.330635,27.850525,48.547599c8.645295,15.199769,17.026398,30.550095,25.709107,45.728119c5.042785,8.815049,11.377868,11.53534,20.493408,7.621155c3.859009-1.657059,7.333313-5.70578,9.520325-9.508423c10.87558-18.909866,21.114227-38.184906,31.875702-57.162048c7.472473-13.177185,15.742096-25.906029,23.094665-39.146645c10.979798-19.772567,28.348419-29.839836,49.967194-32.292675c15.167297-1.720859,30.577881-1.62722,45.883667-1.721958c24.162445-.149555,48.332977-.005741,72.489288.516304c7.075928.152924,14.314636,1.298912,21.1344,3.215027c21.90216,6.153694,33.626342,21.836937,37.717956,43.40136c1.040527,5.4841.203613,11.789764-1.443115,17.209846-2.495789,8.214836-6.303101,16.053688-9.848755,23.919052-2.268189,5.031571-6.367371,7.025849-12.07074,7.066208-40.660095.287811-81.331054.352356-121.972015,1.460282-20.021546.545822-38.915375,5.95816-53.355713,21.275802-8.965912,9.510666-14.760681,20.40181-14.125946,34.065643.660339,14.215317,8.556763,22.965561,22.712616,23.133057c33.823334.400223,67.652252.323517,101.478912.447434c7.332092.026855,14.668152-.050614,21.994934.168945c8.507813.254944,9.121643,1.306259,5.043885,9.062668-7.98053,15.179916-16.09729,30.288604-24.227173,45.389373-5.130799,9.530121-10.444336,18.961915-15.562867,28.498444-2.451721,4.568024-5.910339,6.622009-11.256469,6.612244-61.496155-.112244-122.992615-.112213-184.488709.0112-5.335205.010711-8.752197-2.02295-11.317383-6.519196-16.999542-29.796631-33.920837-59.640076-51.213226-89.26654-8.051269-13.793915-16.119446-27.689591-25.52684-40.554215-14.231613-19.461807-34.041626-30.225021-58.266159-31.308624-23.46048-1.049423-46.963654-1.175919-70.449867-1.610184-20.325402-.375809-40.652733-.694458-60.980652-.849975-4.301026-.032914-7.578652-1.616913-9.673626-5.084565-10.390129-17.198074-15.790169-35.61882-8.730831-55.209991c7.297989-20.253471,23.312004-30.89109,44.175552-33.318707c14.184052-1.650405,28.58712-1.820057,42.896591-1.90327c25.819748-.150151,51.64328.210487,77.463776.491748c3.799988.041394,7.591949.817254,11.812729,1.322899Z" fill="#1f6aa5"/><path d="M116.644012,222.625916c20.459031.13446,40.457322.717773,60.433884.288909c18.939118-.406601,31.440537,9.264695,40.66156,24.282486c8.969132,14.607529,17.260651,29.630204,25.902909,44.439499c13.002685,22.281342,25.76419,44.710297,39.159332,66.753784c14.30191,23.535676,35.626068,35.177826,63.210846,35.072236c40.1492-.153656,80.298034-.39679,120.447113-.582215c4.330566-.019989,8.667541-.033478,12.991089.170868c5.194336.245545,5.98175,1.473511,3.585266,6.151886-5.918579,11.554016-11.891693,23.084473-18.09256,34.488678-17.573151,32.319275-35.650055,64.371094-52.790558,96.916901-11.925049,22.642822-31.261993,34.212036-55.215942,38.439514-18.422089,3.25116-37.162628,3.431518-55.254547-3.190125-16.831604-6.1604-30.699799-16.2406-39.499482-32.034729-19.927948-35.7677-39.479919-71.745178-59.124359-107.670379-4.711532-8.616364-9.187347-17.361634-13.770477-26.048187-1.878281-3.560029-2.700729-5.904786,2.885986-7.382386c4.231186-1.119079,8.535645-4.161377,11.49025-7.51004c10.455429-11.849884,14.765991-25.871796,9.995346-41.220551-4.549423-14.636962-14.633331-24.745452-29.978653-27.857269-10.379166-2.104767-21.048416-3.043793-31.638199-3.741272-5.924377-.390198-10.08226-2.182678-12.898788-7.545532-13.001969-24.756348-26.190796-49.414566-39.210488-74.161697-3.438949-6.536561-2.881622-7.349793,4.252419-7.664658c3.993881-.176254,7.991745-.26236,12.458053-.395721Z" fill="#1f6aa5"/></svg>
